<svg width="522" height="379" viewBox="0 0 522 379" fill="none" xmlns="http://www.w3.org/2000/svg">
<g filter="url(#filter0_d_557_561)">
<path d="M332.626 367.572C292.664 376.953 282.08 324.522 243.38 324.887C192.744 325.366 136.879 379.012 90.3028 369.861C43.03 360.572 19.0694 319.317 9.33524 278.9C-1.19289 235.187 2.62242 183.319 34.2927 137.303C65.5906 91.8274 121.525 57.7236 176.888 35.4498C225.944 15.7133 273.239 26.3509 323.013 21.1432C371.132 16.1086 426.348 -10.6794 464.609 5.34619C502.937 21.3993 516.881 62.7365 517.038 102.409C517.177 137.497 485.806 172.59 465.411 208.004C449.827 235.063 432.681 260.123 411.658 285.387C387.294 314.666 370.748 358.624 332.626 367.572Z" fill="#484C9A"/>
</g>
<defs>
<filter id="filter0_d_557_561" x="0.0771484" y="0.295776" width="520.961" height="378.615" filterUnits="userSpaceOnUse" color-interpolation-filters="sRGB">
<feFlood flood-opacity="0" result="BackgroundImageFix"/>
<feColorMatrix in="SourceAlpha" type="matrix" values="0 0 0 0 0 0 0 0 0 0 0 0 0 0 0 0 0 0 127 0" result="hardAlpha"/>
<feOffset dy="4"/>
<feGaussianBlur stdDeviation="2"/>
<feComposite in2="hardAlpha" operator="out"/>
<feColorMatrix type="matrix" values="0 0 0 0 0 0 0 0 0 0 0 0 0 0 0 0 0 0 0.25 0"/>
<feBlend mode="normal" in2="BackgroundImageFix" result="effect1_dropShadow_557_561"/>
<feBlend mode="normal" in="SourceGraphic" in2="effect1_dropShadow_557_561" result="shape"/>
</filter>
</defs>
</svg>
